# xmcd
#
# Track frame offsets:
#	150
#	12867
#	34939
#	56893
#	72940
#	99144
#	110577
#	131470
#	143029
#	163839
#	177030
#	201285
#	216420
#	226395
#	250567
#	292334
#
# Disc length: 4149 seconds
#
# Revision: 0
# Processed by: cddbd v1.5.2PL0 Copyright (c) Steve Scherf et al.
# Submitted via: dBpowerAMP V4.0
#
DISCID=ec103310
DTITLE=Kev Carmody - Cannot Buy my Soul
DYEAR=1900
DGENRE=
TTITLE0=I've been moved
TTITLE1=Thou Shalt not Steal
TTITLE2=Elly
TTITLE3=The Young Dancer is Dead
TTITLE4=From Little Things Big Things Grow
TTITLE5=River of Tears
TTITLE6=On the wire
TTITLE7=Cannot Buy my Soul
TTITLE8=Moonstruck
TTITLE9=This land is Mine
TTITLE10=Darkside
TTITLE11=Blood Red rose
TTITLE12=Comrade Jesus Christ
TTITLE13=Images of London
TTITLE14=Droving Woman
TTITLE15=Eulogy for a Black man
EXTD=
EXTT0=
EXTT1=
EXTT2=
EXTT3=
EXTT4=
EXTT5=
EXTT6=
EXTT7=
EXTT8=
EXTT9=
EXTT10=
EXTT11=
EXTT12=
EXTT13=
EXTT14=
EXTT15=
PLAYORDER=
